<svg xmlns="http://www.w3.org/2000/svg" viewBox="0 0 867.01 376.86"><defs><style>.cls-1{fill:#51284c;}</style></defs><title>logotype</title><g id="Layer_2" data-name="Layer 2"><g id="Layer_2-2" data-name="Layer 2"><polygon class="cls-1" points="0 176.86 202.94 176.86 282.73 179.46 202.94 182.44 0 182.44 0 176.86"/><polygon class="cls-1" points="864.74 176.86 864.74 182.44 532.98 182.44 453.2 179.65 532.98 176.86 864.74 176.86"/><path class="cls-1" d="M51.62,240.17q-8.35,0-13.13,5.59t-4.78,15.29q0,10,4.64,15.45t13.2,5.43A44,44,0,0,0,64,279.88v5.66a31.81,31.81,0,0,1-6.34,1.65,49.24,49.24,0,0,1-7,.44q-11.43,0-17.61-7T26.84,261a31.43,31.43,0,0,1,3-14,21.26,21.26,0,0,1,8.6-9.27,26.14,26.14,0,0,1,13.29-3.26,31.61,31.61,0,0,1,14.3,3L63.37,243A28.32,28.32,0,0,0,51.62,240.17Z"/><path class="cls-1" d="M142.39,286.93h-6.51V262.79H109.33v24.14h-6.51V235.18h6.51v21.88h26.55V235.18h6.51Z"/><path class="cls-1" d="M198.64,286.93H180v-3.75l6.09-1.38V240.38L180,238.93v-3.75h18.69v3.75l-6.09,1.45v41.42l6.09,1.38Z"/><path class="cls-1" d="M242.72,265.55v21.38h-6.51V235.18h14.27q9.63,0,14.25,3.66t4.62,11q0,10.3-10.37,13.88l14.19,23.19h-7.61L253,265.55Zm0-5.52h7.75q6.3,0,9.2-2.48t2.9-7.36q0-4.89-2.94-7.13t-9.52-2.25h-7.4Z"/><path class="cls-1" d="M354,261q0,12.42-6.28,19.54t-17.57,7.12q-11.43,0-17.68-7t-6.25-19.73q0-12.64,6.21-19.59t17.79-7q11.26,0,17.52,7.06T354,261Zm-40.92,0q0,10.27,4.35,15.65T330.16,282q8.32,0,12.64-5.31T347.12,261q0-10.37-4.28-15.63t-12.6-5.26q-8.42,0-12.78,5.33T313.1,261Z"/><path class="cls-1" d="M426.13,250.4q0,7.93-5.42,12.16t-15.26,4.23h-5.95v20.14H393V235.18h13.7Q426.13,235.18,426.13,250.4Zm-26.62,10.8h5.2q7.72,0,11.19-2.5t3.47-8q0-5-3.22-7.47t-10.05-2.48h-6.58Z"/><path class="cls-1" d="M470.92,265.55v21.38h-6.51V235.18h14.27q9.63,0,14.25,3.66t4.62,11q0,10.3-10.37,13.88l14.19,23.19h-7.61l-12.53-21.38Zm0-5.52h7.75q6.3,0,9.2-2.48t2.9-7.36q0-4.89-2.94-7.13t-9.52-2.25h-7.4Z"/><path class="cls-1" d="M569.51,286.93l-6.23-16H542.75l-6.16,16H530l20.21-52h5.88l20.18,52Zm-8.18-21.8-5.81-15.68-2.48-7.75q-1.06,4.25-2.23,7.75l-5.88,15.68Z"/><path class="cls-1" d="M632.38,240.17q-8.35,0-13.13,5.59t-4.78,15.29q0,10,4.64,15.45t13.2,5.43a44,44,0,0,0,12.42-2.05v5.66a31.8,31.8,0,0,1-6.34,1.65,49.25,49.25,0,0,1-7,.44q-11.43,0-17.61-7T607.61,261a31.45,31.45,0,0,1,3-14,21.26,21.26,0,0,1,8.6-9.27,26.14,26.14,0,0,1,13.29-3.26,31.61,31.61,0,0,1,14.3,3L644.14,243A28.32,28.32,0,0,0,632.38,240.17Z"/><path class="cls-1" d="M700,286.93h-6.55v-46H677.24v-5.73H716v5.73H700Z"/><path class="cls-1" d="M766,286.93H747.3v-3.75l6.09-1.38V240.38l-6.09-1.45v-3.75H766v3.75l-6.09,1.45v41.42l6.09,1.38Z"/><path class="cls-1" d="M825.71,240.17q-8.35,0-13.13,5.59t-4.78,15.29q0,10,4.64,15.45t13.2,5.43a44,44,0,0,0,12.42-2.05v5.66a31.8,31.8,0,0,1-6.34,1.65,49.25,49.25,0,0,1-7,.44q-11.43,0-17.61-7T800.94,261a31.45,31.45,0,0,1,3-14,21.26,21.26,0,0,1,8.6-9.27,26.14,26.14,0,0,1,13.29-3.26,31.61,31.61,0,0,1,14.3,3L837.47,243A28.32,28.32,0,0,0,825.71,240.17Z"/><path class="cls-1" d="M128.86,362.67a14,14,0,0,1,2.37-8.07q2.37-3.47,8.78-7.15a44.2,44.2,0,0,1-3.88-4.87,16.51,16.51,0,0,1-1.79-3.68,12.4,12.4,0,0,1-.64-4,10.41,10.41,0,0,1,3.5-8.28q3.51-3,9.84-3,5.84,0,9.19,3a10.42,10.42,0,0,1,3.34,8.21,11.51,11.51,0,0,1-2.42,7.08,27.09,27.09,0,0,1-7.95,6.48l14,13.45q3.29-3.82,5.1-11.5h6.44q-2.44,10.09-7.4,15.58l10.58,10.3h-8.64l-6.3-6.09a26.28,26.28,0,0,1-8.34,5.2,27.19,27.19,0,0,1-9.5,1.59q-7.61,0-11.95-3.72T128.86,362.67Zm16.5,8.57a19.1,19.1,0,0,0,13.56-5.17l-15.08-14.62q-4.88,2.94-6.6,5.34a9.5,9.5,0,0,0-1.72,5.66,8.07,8.07,0,0,0,2.73,6.39A10.4,10.4,0,0,0,145.36,371.23Zm-5.42-36.39a9.52,9.52,0,0,0,1.26,4.6,23,23,0,0,0,4.09,5.1,21.47,21.47,0,0,0,6.19-4.67,7.88,7.88,0,0,0,1.8-5.1,5.54,5.54,0,0,0-1.8-4.32,6.71,6.71,0,0,0-4.67-1.63,7.24,7.24,0,0,0-5,1.66A5.57,5.57,0,0,0,139.94,334.84Z"/><path class="cls-1" d="M256.14,376.15h-6.58l-10.09-33.91A93.17,93.17,0,0,1,236.85,332a73.16,73.16,0,0,1-2.48,10.44l-9.77,33.7H218l-13.7-51.75h6.8l8,31.61a105.56,105.56,0,0,1,2.48,12.32,89.5,89.5,0,0,1,2.76-12.71l9.13-31.22h6.73l9.52,31.47a93.53,93.53,0,0,1,2.83,12.46,94.69,94.69,0,0,1,2.51-12.39l8-31.54h6.8Z"/><path class="cls-1" d="M332.21,376.15H303.29V324.4h28.92v5.73H309.8v16.14h21.1v5.66H309.8v18.48h22.41Z"/><path class="cls-1" d="M369,376.15V324.4h6.51v45.95h22.62v5.81Z"/><path class="cls-1" d="M432.33,376.15V324.4h6.51v45.95h22.62v5.81Z"/><path class="cls-1" d="M536.71,376.15H529.1l-27.72-43h-.28l.18,2.87q.42,6.44.42,11.19v28.92h-6V324.4h7.54l1.59,2.51,17,26.27,9,14.05h.28q-.07-.85-.28-6.07t-.21-7.56V324.4h6.09Z"/><path class="cls-1" d="M605.06,376.15H576.14V324.4h28.92v5.73H582.65v16.14h21.1v5.66h-21.1v18.48h22.41Z"/><path class="cls-1" d="M671.17,362.31A12.89,12.89,0,0,1,666.29,373q-4.89,3.89-13.59,3.89-9.2,0-14.23-2.44v-6.23a37.55,37.55,0,0,0,7.2,2.23,36,36,0,0,0,7.31.81q5.81,0,8.74-2.23a7.27,7.27,0,0,0,2.94-6.12,7.77,7.77,0,0,0-1.06-4.25,10.16,10.16,0,0,0-3.56-3.12,49.76,49.76,0,0,0-7.56-3.29q-7.19-2.62-10.26-6.18a13.53,13.53,0,0,1-3.08-9.19,11.61,11.61,0,0,1,4.55-9.63q4.55-3.58,12-3.58a34.65,34.65,0,0,1,14.26,2.9l-2,5.59a32.49,32.49,0,0,0-12.39-2.76,11.64,11.64,0,0,0-7.2,2,6.58,6.58,0,0,0-2.6,5.56,8.11,8.11,0,0,0,1,4.23,9.43,9.43,0,0,0,3.26,3.06,42.21,42.21,0,0,0,7.06,3.15,38.65,38.65,0,0,1,8.6,4.12,13,13,0,0,1,4.18,4.6A13.37,13.37,0,0,1,671.17,362.31Z"/><path class="cls-1" d="M736.33,362.31A12.89,12.89,0,0,1,731.45,373q-4.89,3.89-13.59,3.89-9.2,0-14.23-2.44v-6.23a37.55,37.55,0,0,0,7.2,2.23,36,36,0,0,0,7.31.81q5.81,0,8.74-2.23a7.27,7.27,0,0,0,2.94-6.12,7.77,7.77,0,0,0-1.06-4.25,10.16,10.16,0,0,0-3.56-3.12,49.76,49.76,0,0,0-7.56-3.29q-7.19-2.62-10.26-6.18a13.53,13.53,0,0,1-3.08-9.19,11.61,11.61,0,0,1,4.55-9.63q4.55-3.58,12-3.58a34.65,34.65,0,0,1,14.26,2.9l-2,5.59a32.49,32.49,0,0,0-12.39-2.76,11.64,11.64,0,0,0-7.2,2,6.58,6.58,0,0,0-2.6,5.56,8.11,8.11,0,0,0,1,4.23,9.43,9.43,0,0,0,3.26,3.06,42.21,42.21,0,0,0,7.06,3.15,38.65,38.65,0,0,1,8.6,4.12,13,13,0,0,1,4.18,4.6A13.37,13.37,0,0,1,736.33,362.31Z"/><path class="cls-1" d="M122,53.81a48.84,48.84,0,0,1-3.14,17.35,37.42,37.42,0,0,1-10.19,14.7Q101.65,92.24,90.37,96T62.83,99.79H56v32.15a18.72,18.72,0,0,0,.88,6.32,8.33,8.33,0,0,0,2.35,3.63,7.55,7.55,0,0,0,3.43,1.62,20.34,20.34,0,0,0,4,.39H78.91v10.68H5.58V143.9H14a17.89,17.89,0,0,0,4.12-.44,6.67,6.67,0,0,0,3.23-1.81,9.33,9.33,0,0,0,2.16-3.92,24.14,24.14,0,0,0,.78-6.86V34.11a21.33,21.33,0,0,0-.78-6.42A8.28,8.28,0,0,0,21.32,24,7.42,7.42,0,0,0,18,22.3a17.42,17.42,0,0,0-4-.44H5.58V11.27H67.24a88.67,88.67,0,0,1,24.21,2.94,47.45,47.45,0,0,1,17.11,8.48A34.39,34.39,0,0,1,118.7,36.07,45,45,0,0,1,122,53.81ZM56,88.12h4.9a37.67,37.67,0,0,0,12.65-1.86A19,19,0,0,0,82,80.38,25.54,25.54,0,0,0,86.8,70,67.27,67.27,0,0,0,88.32,54.6a64.82,64.82,0,0,0-1.32-14,25.47,25.47,0,0,0-4.22-9.8A17.53,17.53,0,0,0,75.23,25a30.13,30.13,0,0,0-11.42-1.91H56Z"/><path class="cls-1" d="M133.9,143.9a27.4,27.4,0,0,0,4.75-.44,12.25,12.25,0,0,0,4.61-1.81,10.87,10.87,0,0,0,3.53-3.92,14.12,14.12,0,0,0,1.42-6.86v-61a12.57,12.57,0,0,0-1.42-6.42,10.61,10.61,0,0,0-3.58-3.72A12.57,12.57,0,0,0,138.55,58a30.37,30.37,0,0,0-4.66-.39h-2.35V47h47.15v83.91a14.09,14.09,0,0,0,1.42,6.86,10.83,10.83,0,0,0,3.53,3.92,12.24,12.24,0,0,0,4.66,1.81,27.73,27.73,0,0,0,4.71.44h2.35v10.68H131.54V143.9ZM145.37,14.41a15,15,0,0,1,1.32-6.57,11.9,11.9,0,0,1,3.63-4.46A15.85,15.85,0,0,1,155.71.83,26.89,26.89,0,0,1,169,.83a16.36,16.36,0,0,1,5.49,2.55,12.58,12.58,0,0,1,3.77,4.46,14.12,14.12,0,0,1,1.42,6.57,13.89,13.89,0,0,1-1.42,6.47,13,13,0,0,1-3.77,4.51A16.48,16.48,0,0,1,169,28a24.13,24.13,0,0,1-6.57.88,24.33,24.33,0,0,1-6.71-.88,16,16,0,0,1-5.39-2.65,12.31,12.31,0,0,1-3.63-4.51A14.75,14.75,0,0,1,145.37,14.41Z"/><path class="cls-1" d="M282.89,154.58V88.51A71.5,71.5,0,0,0,282.06,77a26.16,26.16,0,0,0-2.75-8.48,13.59,13.59,0,0,0-5-5.24,14.57,14.57,0,0,0-7.5-1.81A13.32,13.32,0,0,0,258.48,64a18.08,18.08,0,0,0-5.34,6.81,36.32,36.32,0,0,0-2.89,9.9,76.27,76.27,0,0,0-.88,11.81v38.33a18.38,18.38,0,0,0,1,6.76,9.15,9.15,0,0,0,2.89,4,10,10,0,0,0,4.56,1.86,37.52,37.52,0,0,0,6,.44h.59v10.68H202.81V143.9h.39a41.1,41.1,0,0,0,6.27-.44,11.64,11.64,0,0,0,5-1.91,9.58,9.58,0,0,0,3.28-4.21,18.68,18.68,0,0,0,1.18-7.25V70.67a18.4,18.4,0,0,0-1-6.76,9,9,0,0,0-2.94-4,10.37,10.37,0,0,0-4.56-1.86,36.51,36.51,0,0,0-6-.44h-.59V47h42.15l2.65,14.31h1a37.25,37.25,0,0,1,6.42-9,25.53,25.53,0,0,1,7.2-5.1,26.38,26.38,0,0,1,8.09-2.25,78.74,78.74,0,0,1,9-.49,40.39,40.39,0,0,1,13.92,2.25,25.79,25.79,0,0,1,10.44,7,31.38,31.38,0,0,1,6.52,12,59.74,59.74,0,0,1,2.25,17.5v46.56a27.12,27.12,0,0,0,.83,7.5,8.92,8.92,0,0,0,2.5,4.26,8.71,8.71,0,0,0,4.21,2,31.89,31.89,0,0,0,6,.49h.59v10.68Z"/><path class="cls-1" d="M337.69,192.13a27.3,27.3,0,0,0,4.75-.44,12.26,12.26,0,0,0,4.61-1.81,10.89,10.89,0,0,0,3.53-3.92,14.12,14.12,0,0,0,1.42-6.86V71.66a21.45,21.45,0,0,0-1-7.35,9,9,0,0,0-7.16-6.17,27.81,27.81,0,0,0-5.34-.49H337.1V47h39.31L380,62.64h.88a38.57,38.57,0,0,1,5-7.16,30.56,30.56,0,0,1,6.67-5.59,31.5,31.5,0,0,1,8.48-3.63A40.14,40.14,0,0,1,411.6,45a44.75,44.75,0,0,1,17.69,3.28,31.29,31.29,0,0,1,12.89,10.19A49,49,0,0,1,450.07,76a103.17,103.17,0,0,1,2.7,25.19,103.82,103.82,0,0,1-2.65,25,48.32,48.32,0,0,1-7.79,17.4,31.34,31.34,0,0,1-12.65,10.15,42.79,42.79,0,0,1-17.3,3.28q-11.47,0-18.62-4.36A33.1,33.1,0,0,1,382.29,141h-1.37q.39,4.61.78,9,.29,3.73.54,7.94t.25,7.35v13.82a14.1,14.1,0,0,0,1.42,6.86,10.85,10.85,0,0,0,3.53,3.92,12.25,12.25,0,0,0,4.61,1.81,26.8,26.8,0,0,0,4.66.44h4.41v10.68H335.34V192.13Zm65.28-50q10.09,0,14.46-10.15t4.36-30.63q0-20-4.36-30.68T403.17,60a17.57,17.57,0,0,0-10,2.7,18.23,18.23,0,0,0-6.37,7.94,46,46,0,0,0-3.33,12.94,140.47,140.47,0,0,0-1,17.6,145,145,0,0,0,1,18.08A44,44,0,0,0,386.8,132a17.26,17.26,0,0,0,6.27,7.6A18.09,18.09,0,0,0,403,142.13Z"/><path class="cls-1" d="M575.79,100.38q0,28.33-13.28,42.25t-39.06,13.92a63.31,63.31,0,0,1-21.66-3.48,42.32,42.32,0,0,1-16.32-10.44,46.06,46.06,0,0,1-10.29-17.55,77.17,77.17,0,0,1-3.58-24.7q0-28.33,13.28-42.15T524,44.4a63.72,63.72,0,0,1,21.61,3.43,42,42,0,0,1,16.27,10.39,46.15,46.15,0,0,1,10.29,17.5A76.77,76.77,0,0,1,575.79,100.38Zm-73,0a138.6,138.6,0,0,0,1.13,18.82,49.45,49.45,0,0,0,3.63,13.63A19.69,19.69,0,0,0,514,141.1a16.75,16.75,0,0,0,9.8,2.79,16.52,16.52,0,0,0,9.75-2.79,19.88,19.88,0,0,0,6.47-8.28,48.46,48.46,0,0,0,3.58-13.62,145.07,145.07,0,0,0,1.08-18.82,138.5,138.5,0,0,0-1.13-18.87A48.07,48.07,0,0,0,540,68a19.09,19.09,0,0,0-6.52-8.09,19.17,19.17,0,0,0-19.61,0A18.75,18.75,0,0,0,507.37,68a48.18,48.18,0,0,0-3.53,13.48A144.47,144.47,0,0,0,502.76,100.38Z"/><path class="cls-1" d="M591,143.9a27.4,27.4,0,0,0,4.75-.44,12.25,12.25,0,0,0,4.61-1.81,10.87,10.87,0,0,0,3.53-3.92,14.12,14.12,0,0,0,1.42-6.86v-61a12.57,12.57,0,0,0-1.42-6.42,10.61,10.61,0,0,0-3.58-3.72A12.57,12.57,0,0,0,595.64,58a30.37,30.37,0,0,0-4.66-.39h-2.35V47h47.15v83.91a14.09,14.09,0,0,0,1.42,6.86,10.83,10.83,0,0,0,3.53,3.92,12.24,12.24,0,0,0,4.66,1.81,27.73,27.73,0,0,0,4.71.44h2.35v10.68H588.63V143.9ZM602.45,14.41a15,15,0,0,1,1.32-6.57,11.9,11.9,0,0,1,3.63-4.46A15.85,15.85,0,0,1,612.79.83a26.89,26.89,0,0,1,13.28,0,16.36,16.36,0,0,1,5.49,2.55,12.58,12.58,0,0,1,3.77,4.46,14.12,14.12,0,0,1,1.42,6.57,13.89,13.89,0,0,1-1.42,6.47,13,13,0,0,1-3.77,4.51A16.48,16.48,0,0,1,626.07,28a24.13,24.13,0,0,1-6.57.88,24.33,24.33,0,0,1-6.71-.88,16,16,0,0,1-5.39-2.65,12.31,12.31,0,0,1-3.63-4.51A14.75,14.75,0,0,1,602.45,14.41Z"/><path class="cls-1" d="M740,154.58V88.51A71.5,71.5,0,0,0,739.14,77a26.16,26.16,0,0,0-2.75-8.48,13.59,13.59,0,0,0-5-5.24,14.57,14.57,0,0,0-7.5-1.81A13.32,13.32,0,0,0,715.57,64a18.08,18.08,0,0,0-5.34,6.81,36.32,36.32,0,0,0-2.89,9.9,76.27,76.27,0,0,0-.88,11.81v38.33a18.38,18.38,0,0,0,1,6.76,9.15,9.15,0,0,0,2.89,4,10,10,0,0,0,4.56,1.86,37.52,37.52,0,0,0,6,.44h.59v10.68H659.89V143.9h.39a41.1,41.1,0,0,0,6.27-.44,11.64,11.64,0,0,0,5-1.91,9.58,9.58,0,0,0,3.28-4.21,18.68,18.68,0,0,0,1.18-7.25V70.67a18.4,18.4,0,0,0-1-6.76,9,9,0,0,0-2.94-4,10.37,10.37,0,0,0-4.56-1.86,36.51,36.51,0,0,0-6-.44h-.59V47H703l2.65,14.31h1a37.25,37.25,0,0,1,6.42-9,25.53,25.53,0,0,1,7.2-5.1,26.38,26.38,0,0,1,8.09-2.25,78.74,78.74,0,0,1,9-.49,40.39,40.39,0,0,1,13.92,2.25,25.79,25.79,0,0,1,10.44,7,31.38,31.38,0,0,1,6.52,12,59.74,59.74,0,0,1,2.25,17.5v46.56a27.12,27.12,0,0,0,.83,7.5,8.92,8.92,0,0,0,2.5,4.26,8.71,8.71,0,0,0,4.21,2,31.89,31.89,0,0,0,6,.49h.59v10.68Z"/><path class="cls-1" d="M852.8,140.37a50.21,50.21,0,0,0,7.5-.54q3.58-.54,6.71-1.32v13a32.31,32.31,0,0,1-4.26,1.67,57.85,57.85,0,0,1-6.27,1.62q-3.58.74-8.09,1.23a91.19,91.19,0,0,1-9.8.49,43.29,43.29,0,0,1-12.25-1.62,21.75,21.75,0,0,1-9.31-5.39,24.73,24.73,0,0,1-5.88-9.8,46.38,46.38,0,0,1-2.06-14.85V60.68H794V50.38a25.5,25.5,0,0,0,11.57-2.55A27.51,27.51,0,0,0,813.69,42q6.18-6.47,9.21-19.9h16.66V47h25.68V60.68H839.57v62.15q0,9.12,3.09,13.33T852.8,140.37Z"/></g></g></svg>