<svg xmlns="http://www.w3.org/2000/svg" viewBox="0 0 565.41 821.35"><defs><style>.cls-1{fill:#51284c;}</style></defs><title>mark</title><g id="Layer_2" data-name="Layer 2"><g id="Layer_2-2" data-name="Layer 2"><path class="cls-1" d="M247.86,0C159.52,0,76.9,31.14,23.29,76.48-4.12,99.67-5.14,121.92,8.88,140.22c9.51,12.41,13.63,22.8,13.65,35.13,0,3.67-.08,148.69,0,238.62.07,78.64,16.44,94.67,35.1,122.6L247.86,821.35l0-331.3c17.38,2.66,41.32,2.3,61.18-.86C452.65,466.31,565.41,364.86,565.41,245,565.41,108.6,419.31,0,247.86,0Zm10.53,392.5c-4.81.47-10.53-2.1-10.53-6.82,0-43.88-.23-270.55,0-295a9.39,9.39,0,0,1,9.91-9.18C324.69,87.69,377.41,154.88,377.41,237,377.41,318.89,325,386,258.39,392.5Z"/></g></g></svg>